<?xml version="1.0" encoding="UTF-8" standalone="no"?>
<svg
   xmlns:dc="http://purl.org/dc/elements/1.1/"
   xmlns:cc="http://creativecommons.org/ns#"
   xmlns:rdf="http://www.w3.org/1999/02/22-rdf-syntax-ns#"
   xmlns:svg="http://www.w3.org/2000/svg"
   xmlns="http://www.w3.org/2000/svg"
   xmlns:sodipodi="http://sodipodi.sourceforge.net/DTD/sodipodi-0.dtd"
   xmlns:inkscape="http://www.inkscape.org/namespaces/inkscape"
   inkscape:version="1.0 (4035a4fb49, 2020-05-01)"
   sodipodi:docname="decoration_1.svg"
   id="svg10"
   version="1.1"
   viewBox="0 0 525 472"
   height="472"
   width="525">
  <metadata
     id="metadata16">
    <rdf:RDF>
      <cc:Work
         rdf:about="">
        <dc:format>image/svg+xml</dc:format>
        <dc:type
           rdf:resource="http://purl.org/dc/dcmitype/StillImage" />
      </cc:Work>
    </rdf:RDF>
  </metadata>
  <defs
     id="defs14" />
  <sodipodi:namedview
     inkscape:current-layer="svg10"
     inkscape:window-maximized="1"
     inkscape:window-y="0"
     inkscape:window-x="0"
     inkscape:cy="281.65901"
     inkscape:cx="266.49516"
     inkscape:zoom="1.7521186"
     showgrid="false"
     id="namedview12"
     inkscape:window-height="1019"
     inkscape:window-width="1920"
     inkscape:pageshadow="2"
     inkscape:pageopacity="0"
     guidetolerance="10"
     gridtolerance="10"
     objecttolerance="10"
     borderopacity="1"
     bordercolor="#666666"
     pagecolor="#ffffff" />
  <g
     transform="translate(-0.14641175,83.894283)"
     id="g8"
     stroke-width="2"
     stroke="#2573c1"
     fill-rule="evenodd"
     fill="none">
    <path
       id="path2"
       d="m 1,387.748 31.716,-31.717 a 133.032,133.032 0 0 1 94.065,-38.963 h 269.078 c 5.413,0 9.801,-4.386 9.801,-9.8 v -133.74 m 35.37,214.22 V 10.716 m 19.993,251.048 h 7.653 m -7.653,-11.654 h 7.653 m -7.653,-11.654 h 7.653 m -7.653,-11.653 h 7.653 m -7.653,-11.655 h 7.653 m -7.653,-11.653 h 7.653 m -7.653,-11.655 h 7.653 m -7.653,-11.653 h 7.653 m -7.653,-11.654 h 7.653 m -7.653,-11.653 h 7.653 m -7.653,-11.655 h 7.653 m -7.653,-11.654 h 7.653 m -7.653,-11.653 h 7.653 m -7.653,-11.655 h 7.653 M 461.023,98.61 h 7.653 m -7.653,-11.654 h 7.653" />
    <path
       id="path4"
       d="m 523.454,387.748 c 0,45.52 -36.902,82.423 -82.424,82.423 -45.52,0 -82.423,-36.902 -82.423,-82.423 0,-45.521 36.903,-82.424 82.423,-82.424 45.522,0 82.424,36.903 82.424,82.424 z"
       stroke-linejoin="round"
       stroke-dasharray="4,6" />
    <path
       id="path6"
       d="m 411.024,168.163 a 5.3640001,5.3640001 0 1 1 -10.728,0.002 5.3640001,5.3640001 0 0 1 10.728,-0.002 z M 446.396,6.365 a 5.3645,5.3645 0 1 1 -10.729,0 5.3645,5.3645 0 0 1 10.729,0 z m 39.823,381.383 c 0,24.956 -20.231,45.188 -45.188,45.188 -24.957,0 -45.188,-20.232 -45.188,-45.188 0,-24.957 20.23,-45.188 45.188,-45.188 24.957,0 45.188,20.23 45.188,45.188 z m -390.472,-67 v 67.009 m 12.141,0.005 v -25.41 m 12.15,25.41 v -29.1 m 12.14,29.1 v -32.78 m 12.139,32.78 v -36.47 m 12.141,36.47 v -40.13 m 12.149,40.13 v -41.91 m 12.141,41.91 v -37.73 m 12.14,37.73 v -33.14 m 12.15,33.14 v -30.35 m 12.14,30.35 v -28.12 m 12.139,28.12 v -27.11 m 12.151,27.11 v -28.77 m 12.139,28.77 v -33.73 m 12.141,33.73 v -40.95 m 12.149,40.95 v -41.93 m 12.141,41.93 v -40.12 m 12.14,40.12 v -44.23 m 12.139,44.23 v -48.68 m 12.151,48.68 v -51.45 m 12.14,-19.638 V 387.76 M 95.747,352.217 H 36.702 m 329.499,0 h -27.593" />
  </g>
</svg>
